# Blender 4.1.1
# www.blender.org
mtllib BulletEnemy.mtl
o Cube.001
v -1.000000 1.000000 -1.383762
v -0.306499 -1.000000 -0.795518
v 1.000000 1.000000 -1.383762
v 0.306499 -1.000000 -0.795518
v -1.000000 1.000000 1.383762
v -0.306499 -1.000000 0.795518
v 1.000000 1.000000 1.383762
v 0.306499 -1.000000 0.795518
v -1.000000 -0.011739 -1.026304
v 1.000000 -0.011739 1.026304
v 1.000000 -0.011739 -1.026304
v -1.000000 -0.011739 1.026304
v -0.000000 -1.000000 0.795518
v 0.000000 1.000000 -1.383762
v 0.000000 1.000000 1.383762
v -0.000000 -1.000000 -0.795518
v -0.000000 -0.011739 -1.026304
v 0.000000 -0.011739 1.026304
v 1.000000 0.494131 1.420161
v -1.000000 0.494131 -1.420161
v 1.000000 0.494131 -1.420161
v -1.000000 0.494131 1.420161
v -0.000000 0.494131 -1.420161
v 0.000000 0.494131 1.420161
v -1.000000 -0.505869 -0.860745
v 1.000000 -0.505869 -0.860745
v -1.000000 -0.505869 0.860745
v 1.000000 -0.505869 0.860745
v -0.000000 -0.505869 0.860745
v -0.000000 -0.505869 -0.860745
v -1.000000 -1.000000 0.000000
v 1.000000 1.000000 -0.000000
v 1.000000 -1.000000 -0.000000
v -1.000000 1.000000 0.000000
v -1.000000 -0.011739 0.000000
v 1.000000 -0.011739 -0.000000
v 0.000000 1.000000 -0.000000
v -1.000000 0.494131 0.000000
v 1.000000 0.494131 -0.000000
v 1.000000 -0.505869 -0.000000
v -1.000000 -0.505869 0.000000
v 0.000000 -0.445294 0.795518
v 0.306499 -0.445294 0.795518
v -1.000000 -0.445294 0.000000
v -0.306499 -0.445294 0.795518
v 1.000000 -0.445294 -0.000000
v 0.306499 -0.445294 -0.795518
v -0.000000 -0.445294 -0.795518
v -0.306499 -0.445294 -0.795518
v -0.000000 -0.445294 0.000000
vn -0.0000 1.0000 -0.0000
vn 1.0000 -0.0000 -0.0000
vn -0.0000 0.0718 0.9974
vn -0.7538 -0.0000 -0.6571
vn -0.0000 0.0718 -0.9974
vn -1.0000 -0.0000 -0.0000
vn -0.0000 -0.3177 -0.9482
vn -0.0000 -0.3177 0.9482
vn -0.0000 -0.0000 -1.0000
vn -0.0000 -0.6143 0.7890
vn -0.0000 -0.6143 -0.7890
vn -0.0000 -0.1309 -0.9914
vn -0.0000 -0.1309 0.9914
vn 0.4959 -0.7531 0.4323
vn -0.4959 -0.7531 -0.4323
vn -0.4959 -0.7531 0.4323
vn 0.4959 -0.7531 -0.4323
vn -0.0000 -0.0000 1.0000
vn -0.0000 -1.0000 -0.0000
vn 0.7538 -0.0000 0.6571
vn 0.7538 -0.0000 -0.6571
vn -0.7538 -0.0000 0.6571
vt 0.096065 0.082539
vt 0.306250 0.133070
vt 0.210125 0.215081
vt 0.607805 0.258675
vt 0.749091 0.127158
vt 0.779503 0.186165
vt 0.023889 0.839587
vt 0.108874 0.744790
vt 0.087088 0.853709
vt 0.833350 0.422182
vt 0.709219 0.533050
vt 0.681822 0.455294
vt 0.321784 0.345449
vt 0.447600 0.320098
vt 0.362635 0.393628
vt 0.194636 0.606690
vt 0.231169 0.429223
vt 0.279352 0.467057
vt 0.246910 0.638602
vt 0.353256 0.579381
vt 0.302311 0.672826
vt 0.413589 0.454180
vt 0.549000 0.417915
vt 0.456906 0.506295
vt 0.162466 0.866919
vt 0.241882 0.759177
vt 0.227386 0.877268
vt 0.631740 0.320153
vt 0.764425 0.336042
vt 0.656237 0.384157
vt 0.141538 0.988865
vt 0.205249 0.999908
vt 0.313680 0.528899
vt 0.299170 0.849055
vt 0.354905 0.908126
vt 0.289409 0.888997
vt 0.000092 0.963592
vt 0.063253 0.975403
vt 0.000092 0.165322
vt 0.114767 0.298012
vt 0.506125 0.368468
vt 0.180965 0.747332
vt 0.758241 0.267245
vt 0.465304 0.589615
vt 0.500656 0.560825
vt 0.280830 0.926193
vt 0.536897 0.532466
vt 0.363322 0.710844
vt 0.517779 0.647993
vt 0.056412 0.719778
vt 0.344994 0.943576
vt 0.419644 0.266820
vt 0.614393 0.704058
vt 0.580744 0.597850
vt 0.716466 0.622326
vt 0.512293 0.786051
vt 0.648241 0.810368
vt 0.679519 0.785270
vt 0.710791 0.760183
vt 0.426535 0.753693
vt 0.549113 0.622173
vt 0.366033 0.874060
vt 0.192164 0.000092
vt 0.582418 0.198321
vt 0.852140 0.497302
vt 0.141828 0.574810
s 0
usemtl Material.001
f 15/1/1 32/2/1 37/3/1
f 39/4/2 7/5/2 19/6/2
f 15/7/3 22/8/3 24/9/3
f 8/10/4 46/11/4 33/12/4
f 14/13/5 21/14/5 23/15/5
f 38/16/6 1/17/6 20/18/6
f 35/19/6 25/20/6 41/21/6
f 17/22/7 26/23/7 30/24/7
f 18/25/8 27/26/8 29/27/8
f 36/28/2 28/29/2 40/30/2
f 10/31/8 29/27/8 28/32/8
f 9/33/7 30/24/7 25/20/7
f 1/17/5 23/15/5 20/18/5
f 6/34/9 42/35/9 13/36/9
f 7/37/3 24/9/3 19/38/3
f 5/39/1 37/3/1 34/40/1
f 19/38/10 18/25/10 10/31/10
f 20/18/11 17/22/11 9/33/11
f 38/16/6 9/33/6 35/19/6
f 23/15/11 11/41/11 17/22/11
f 24/9/10 12/42/10 18/25/10
f 39/4/2 10/43/2 36/28/2
f 2/44/12 30/24/12 16/45/12
f 8/46/13 29/27/13 13/36/13
f 33/12/14 28/29/14 8/10/14
f 29/27/13 6/34/13 13/36/13
f 30/24/12 4/47/12 16/45/12
f 31/48/15 25/20/15 2/44/15
f 27/26/16 31/48/16 6/34/16
f 26/23/17 33/12/17 4/47/17
f 11/41/2 39/4/2 36/28/2
f 12/42/6 38/16/6 35/19/6
f 34/40/1 14/13/1 1/17/1
f 16/45/18 49/49/18 2/44/18
f 26/23/2 36/28/2 40/30/2
f 27/26/6 35/19/6 41/21/6
f 5/50/6 38/16/6 22/8/6
f 13/36/9 43/51/9 8/46/9
f 3/52/2 39/4/2 21/14/2
f 37/3/1 3/52/1 14/13/1
f 50/53/19 47/54/19 46/55/19
f 49/49/19 50/53/19 44/56/19
f 45/57/19 50/53/19 42/58/19
f 50/53/19 43/59/19 42/58/19
f 2/44/20 44/60/20 31/48/20
f 4/47/18 48/61/18 16/45/18
f 31/48/21 45/62/21 6/34/21
f 33/12/22 47/54/22 4/47/22
f 15/1/1 7/63/1 32/2/1
f 39/4/2 32/64/2 7/5/2
f 15/7/3 5/50/3 22/8/3
f 8/10/4 43/65/4 46/11/4
f 14/13/5 3/52/5 21/14/5
f 38/16/6 34/66/6 1/17/6
f 35/19/6 9/33/6 25/20/6
f 17/22/7 11/41/7 26/23/7
f 18/25/8 12/42/8 27/26/8
f 36/28/2 10/43/2 28/29/2
f 10/31/8 18/25/8 29/27/8
f 9/33/7 17/22/7 30/24/7
f 1/17/5 14/13/5 23/15/5
f 6/34/9 45/62/9 42/35/9
f 7/37/3 15/7/3 24/9/3
f 5/39/1 15/1/1 37/3/1
f 19/38/10 24/9/10 18/25/10
f 20/18/11 23/15/11 17/22/11
f 38/16/6 20/18/6 9/33/6
f 23/15/11 21/14/11 11/41/11
f 24/9/10 22/8/10 12/42/10
f 39/4/2 19/6/2 10/43/2
f 2/44/12 25/20/12 30/24/12
f 8/46/13 28/32/13 29/27/13
f 33/12/2 40/30/2 28/29/2
f 29/27/13 27/26/13 6/34/13
f 30/24/12 26/23/12 4/47/12
f 31/48/6 41/21/6 25/20/6
f 27/26/6 41/21/6 31/48/6
f 26/23/2 40/30/2 33/12/2
f 11/41/2 21/14/2 39/4/2
f 12/42/6 22/8/6 38/16/6
f 34/40/1 37/3/1 14/13/1
f 16/45/18 48/61/18 49/49/18
f 26/23/2 11/41/2 36/28/2
f 27/26/6 12/42/6 35/19/6
f 5/50/6 34/66/6 38/16/6
f 13/36/9 42/35/9 43/51/9
f 3/52/2 32/64/2 39/4/2
f 37/3/1 32/2/1 3/52/1
f 50/53/19 48/61/19 47/54/19
f 49/49/19 48/61/19 50/53/19
f 45/57/19 44/56/19 50/53/19
f 50/53/19 46/55/19 43/59/19
f 2/44/20 49/49/20 44/60/20
f 4/47/18 47/54/18 48/61/18
f 31/48/21 44/60/21 45/62/21
f 33/12/22 46/11/22 47/54/22
